<?xml version="1.0" encoding="UTF-8"?>
<svg width="160px" height="32px" viewBox="0 0 160 32" version="1.1" xmlns="http://www.w3.org/2000/svg" xmlns:xlink="http://www.w3.org/1999/xlink">
    <!-- Generator: Sketch 59.1 (86144) - https://sketch.com -->
    <title>iTranslate Logo</title>
    <desc>Created with Sketch.</desc>
    <defs>
        <path d="M3.29145254,8.62774735 C3.05883812,8.62774735 2.79690488,8.61820916 2.51339742,8.59940531 C2.2243581,8.58087397 1.94970159,8.55171437 1.69800228,8.5132891 L1.3624954,8.46205541 L1.30634709,8.13203412 C1.26624115,7.89684966 1.24079463,7.63822852 1.2308373,7.3632562 C1.22115655,7.10327246 1.21700766,6.87054068 1.21700766,6.66533338 C1.21700766,6.46094365 1.22115655,6.22821187 1.2308373,5.96713805 C1.24079463,5.69080313 1.26679434,5.4392675 1.30745346,5.21934415 L1.36775066,4.89477325 L1.69883206,4.84462963 C1.94887182,4.8067494 2.22297513,4.77786232 2.51312082,4.75878595 C2.80907496,4.73943705 3.05441264,4.7304439 3.26379328,4.7304439 C3.47345051,4.7304439 3.7185116,4.73943705 4.01363595,4.75851343 C4.30599439,4.77813484 4.5726297,4.80729444 4.80690368,4.84571971 L5.13383619,4.89913356 L5.19275042,5.22043422 C5.23313295,5.4406301 5.25885607,5.69189321 5.26909,5.96713805 C5.27849415,6.22875691 5.28319622,6.46094365 5.28319622,6.66533338 C5.28319622,6.87026816 5.27849415,7.10272742 5.26909,7.36298368 C5.25885607,7.63713844 5.23340954,7.89548706 5.19385679,8.13121656 L5.13881486,8.45742257 L4.80773345,8.51247154 C4.5726297,8.55116933 4.31069646,8.58060145 4.02884855,8.59940531 C3.75419205,8.61820916 3.50581185,8.62774735 3.29145254,8.62774735 M36.6204521,10.3443486 C38.5729196,10.3443486 40.0914132,10.8000014 41.1344441,11.6987712 C42.1954535,12.6141647 42.7334262,14.0658769 42.7334262,16.0130297 L42.7334262,25.1301745 L42.3677708,25.2124754 C41.7172248,25.3593635 40.9173189,25.5125195 39.9907335,25.6673107 C39.0447866,25.8253721 38.0689678,25.9054929 37.0906596,25.9054929 C36.1563296,25.9054929 35.2975094,25.8191041 34.5382626,25.6487794 C33.7505267,25.4719141 33.0690024,25.1800456 32.5127746,24.7810768 C31.9452065,24.37475 31.5001689,23.8490596 31.1906617,23.2184492 C30.8841971,22.5949242 30.728752,21.8392272 30.728752,20.9726148 C30.728752,20.1174481 30.9104734,19.3513954 31.2689375,18.6954406 C31.624359,18.0454813 32.1133748,17.4974443 32.722985,17.0668632 C33.3195954,16.6455478 34.0130131,16.328335 34.7833237,16.1239452 C35.5389748,15.9233708 36.3433062,15.8219935 37.1736374,15.8219935 C37.7730136,15.8219935 38.2730931,15.8361645 38.6600463,15.8639615 C38.819087,15.8754073 38.9692769,15.8879432 39.1097859,15.9012967 C39.1092327,14.9875383 38.8918309,14.3604706 38.4639421,14.0369898 C37.9973303,13.6846219 37.2839978,13.505849 36.3438594,13.505849 C35.7303769,13.505849 35.1489792,13.554085 34.6154319,13.6483768 C34.0741401,13.7448487 33.5392099,13.8732055 33.025854,14.0301768 L32.6665601,14.1402747 L32.4787537,13.8187016 C32.0884815,13.1510284 31.8904411,12.3487306 31.8904411,11.4344272 L31.8904411,11.0973204 L32.2162673,10.9934904 C32.86626,10.7863755 33.5898264,10.6247713 34.3673283,10.5127657 C35.1423409,10.4010327 35.9004814,10.3443486 36.6204521,10.3443486 Z M67.1282342,10.3441851 C67.8750344,10.3441851 68.6179622,10.4161303 69.3365499,10.557568 C70.0446271,10.697098 70.6760881,10.8636075 71.2137842,11.0524636 L71.560908,11.1742799 L71.5238446,11.535641 C71.4842919,11.9226189 71.4096118,12.3150472 71.3020173,12.7017525 C71.1938696,13.0898205 71.0586158,13.4541793 70.9006814,13.7847456 L70.7178536,14.1676357 L70.3143049,14.0232003 C69.9254157,13.8839428 69.453272,13.7465929 68.9105972,13.6149659 C68.3872839,13.4885168 67.8155669,13.4242021 67.211212,13.4242021 C66.600772,13.4242021 66.0567143,13.5293947 65.594528,13.7367822 C65.2399362,13.8962061 65.0817252,14.1529197 65.0817252,14.5685121 C65.0817252,14.7927958 65.1254268,14.9802893 65.2111705,15.1252697 C65.3068716,15.2874189 65.4346574,15.4225887 65.601996,15.5389546 C65.7906321,15.6708541 66.0121829,15.7855848 66.2608396,15.8804217 C66.5371557,15.9858868 66.8419608,16.093532 67.1661274,16.2000872 L68.3864542,16.6096843 C68.8464277,16.7612052 69.2914653,16.9443384 69.7071841,17.1533609 C70.1502855,17.3773721 70.5375152,17.6613376 70.8591925,17.9978993 C71.1830825,18.3380038 71.4469519,18.7527787 71.6438858,19.2315958 C71.841373,19.7128655 71.9412229,20.289517 71.9412229,20.9454718 C71.9412229,21.6861802 71.7852247,22.3740198 71.4779302,22.9896417 C71.171189,23.604446 70.7311301,24.1350417 70.1699236,24.5672579 C69.6200574,24.9910259 68.95015,25.3243175 68.1792863,25.5581393 C67.4183799,25.788691 66.5714532,25.9056019 65.6622932,25.9056019 C64.7542395,25.9056019 63.9443762,25.8434674 63.2553839,25.7211061 C62.566115,25.5981997 61.9177818,25.4311452 61.3280863,25.2245753 L60.9809625,25.103304 L61.0177494,24.741943 C61.0575787,24.3484246 61.1433224,23.9453681 61.2724912,23.5439466 C61.3964047,23.1594214 61.5352542,22.7773489 61.685444,22.4083573 L61.8613569,21.9753236 L62.2997563,22.1516438 C62.7666447,22.3394098 63.2916175,22.4912032 63.8597388,22.6029363 C64.4248176,22.7146694 64.9940453,22.7713534 65.5516561,22.7713534 C65.9383326,22.7713534 66.3109029,22.7296579 66.6594097,22.6476295 C66.9929804,22.5694164 67.2834027,22.4525055 67.5232085,22.300167 C67.7547166,22.1530064 67.9356081,21.9791388 68.0763938,21.7676636 C68.2014137,21.5798975 68.2619875,21.3733277 68.2619875,21.1362356 C68.2619875,20.8571754 68.2135838,20.6323467 68.1173295,20.4685624 C68.0119477,20.2881544 67.8742046,20.1393587 67.6969087,20.0134546 C67.4994215,19.873652 67.2640412,19.7499281 66.9971293,19.6460981 C66.7047709,19.53273 66.3847532,19.4218145 66.0462038,19.3163494 L65.0560021,18.9544433 C63.7963991,18.4895248 62.8985794,17.9714649 62.3091604,17.3705591 C61.6893163,16.7391311 61.3751071,15.8880522 61.3751071,14.8410318 C61.3751071,13.4661701 61.883761,12.3556526 62.8875157,11.5402738 C63.8644409,10.7466966 65.2911058,10.3441851 67.1282342,10.3441851 Z M87.7336399,10.3443486 C89.6861074,10.3443486 91.2046011,10.8000014 92.2476319,11.6987712 C93.3086413,12.6141647 93.8466141,14.0658769 93.8466141,16.0130297 L93.8466141,25.1301745 L93.4809586,25.2124754 C92.8304127,25.3593635 92.0305067,25.5125195 91.1039213,25.6673107 C90.1579745,25.8253721 89.1821556,25.9054929 88.2038474,25.9054929 C87.2695174,25.9054929 86.4106972,25.8191041 85.6514504,25.6487794 C84.8637145,25.4719141 84.1821902,25.1800456 83.6259624,24.7810768 C83.0583943,24.37475 82.6133567,23.8490596 82.3038496,23.2184492 C81.9973849,22.5949242 81.8419398,21.8392272 81.8419398,20.9726148 C81.8419398,20.1174481 82.0236612,19.3513954 82.3821253,18.6954406 C82.7375468,18.0454813 83.2265626,17.4974443 83.8361728,17.0668632 C84.4327832,16.6455478 85.126201,16.328335 85.8965115,16.1239452 C86.6521626,15.9233708 87.456494,15.8219935 88.2868252,15.8219935 C88.8862015,15.8219935 89.386281,15.8361645 89.7732341,15.8639615 C89.9322749,15.8754073 90.0824647,15.8879432 90.2229737,15.9012967 C90.2224205,14.9875383 90.0050187,14.3604706 89.5771299,14.0369898 C89.1105181,13.6846219 88.3971856,13.505849 87.4570472,13.505849 C86.8435647,13.505849 86.262167,13.554085 85.7286198,13.6483768 C85.1873279,13.7448487 84.6523977,13.8732055 84.1390418,14.0301768 L83.7797479,14.1402747 L83.5919415,13.8187016 C83.2016693,13.1510284 83.003629,12.3487306 83.003629,11.4344272 L83.003629,11.0973204 L83.3294551,10.9934904 C83.9794478,10.7863755 84.7030142,10.6247713 85.4805161,10.5127657 C86.2555288,10.4010327 87.0136692,10.3443486 87.7336399,10.3443486 Z M113.235261,10.3442668 C114.274696,10.3442668 115.204877,10.5230397 116.000358,10.8754076 C116.798328,11.2296832 117.477086,11.7243063 118.017825,12.3456511 C118.553861,12.961818 118.965708,13.7030715 119.2423,14.5489725 C119.514467,15.3823375 119.65221,16.2966409 119.65221,17.2665384 C119.65221,17.5240694 119.642806,17.8042196 119.623721,18.0996309 C119.604637,18.3868666 119.585828,18.6313167 119.567297,18.8340714 L119.52885,19.2559318 L109.941043,19.2559318 C110.037297,20.4054196 110.382761,21.2622214 110.971074,21.8069882 C111.642364,22.4286055 112.674055,22.7439107 114.037103,22.7439107 C115.28177,22.7439107 116.480246,22.52535 117.60017,22.0944964 L117.989889,21.9443381 L118.186269,22.3081518 C118.352225,22.6147364 118.487479,22.9872708 118.588988,23.4153991 C118.687179,23.8326267 118.746923,24.2498543 118.766561,24.6569986 L118.782327,24.9793894 L118.480564,25.105566 C117.844678,25.3718176 117.135771,25.5742997 116.373758,25.7078344 C115.619766,25.8391888 114.777818,25.9056836 113.871148,25.9056836 C112.528014,25.9056836 111.353601,25.71601 110.381101,25.3423855 C109.395325,24.9638557 108.568313,24.419634 107.923299,23.7247089 C107.279668,23.032509 106.803099,22.2029592 106.506868,21.2594962 C106.217829,20.3383798 106.071235,19.3158861 106.071235,18.2203571 C106.071235,17.1449946 106.212297,16.124681 106.491102,15.187486 C106.77461,14.2333947 107.218264,13.3896739 107.809896,12.6800327 C108.404847,11.9668488 109.162158,11.393195 110.060807,10.9746048 C110.959457,10.5562871 112.027381,10.3442668 113.235261,10.3442668 Z M101.203979,7.21037268 L101.203979,10.6713722 L104.702322,10.6713722 L104.787236,11.0291905 C104.868831,11.3725652 104.91032,11.7565454 104.91032,12.1705027 C104.91032,12.3811604 104.900086,12.5888204 104.880448,12.7880323 C104.85998,12.9864266 104.829832,13.1845483 104.790555,13.3785823 L104.715046,13.7511167 L101.203979,13.7511167 L101.203979,19.664793 C101.203979,20.4052289 101.234957,20.9979591 101.296084,21.4260875 C101.364402,21.9079022 101.477252,22.1629806 101.559953,22.2924274 C101.657314,22.4450384 101.777079,22.5385127 101.937779,22.5878387 C102.1585,22.6551511 102.451135,22.6894885 102.807939,22.6894885 C103.095319,22.6894885 103.366933,22.6685045 103.615313,22.6276266 C103.87614,22.5851135 104.11484,22.5371501 104.325603,22.4853713 L104.742428,22.3826314 L104.884044,22.7821452 C105.026212,23.1841117 105.113616,23.6002492 105.144041,24.0193844 C105.17253,24.4112677 105.186913,24.7614554 105.186913,25.0604095 L105.186913,25.4225881 L104.830385,25.5103394 C104.443155,25.6054487 104.031585,25.6776664 103.607845,25.7253574 C103.184382,25.7727758 102.729387,25.796485 102.254754,25.796485 C100.816749,25.796485 99.6661234,25.4375766 98.8355157,24.7298431 C97.9841635,24.0052134 97.5524024,22.8235682 97.5524024,21.218155 L97.5524024,13.7511167 L95.5105954,13.7511167 L95.2312369,12.7874872 L100.30201,7.21037268 L101.203979,7.21037268 Z M76.2554598,4.5667686 C76.4667765,4.5667686 76.699391,4.57603427 76.9671327,4.59538317 C77.2318318,4.61500458 77.4760631,4.6444367 77.6945713,4.68313449 L78.0812479,4.75208196 L78.0812479,20.8909679 C78.0812479,21.3515261 78.120524,21.7082543 78.1976934,21.9513418 C78.2665649,22.169085 78.3528618,22.3295991 78.4546479,22.4296138 C78.5475831,22.5214529 78.6521351,22.5784095 78.7749422,22.6045714 C78.9533445,22.6427242 79.1477891,22.6623456 79.3532975,22.6623456 C79.5051468,22.6623456 79.6821661,22.6536249 79.8796533,22.6367287 C80.0663533,22.6209226 80.2226282,22.5974859 80.3446055,22.5672362 L80.7984941,22.4541406 L80.9152161,22.9013453 C81.0900227,23.5720162 81.1788089,24.3075467 81.1788089,25.0877704 L81.1788089,25.4145215 L80.8665358,25.5243469 C80.5689222,25.6287219 80.2112879,25.6971243 79.8033137,25.7271015 C79.423552,25.755171 79.0675772,25.7693421 78.7447936,25.7693421 C78.1703107,25.7693421 77.6254232,25.6993045 77.1245139,25.5614096 C76.6003708,25.4172467 76.1312697,25.1752492 75.7310401,24.8427753 C75.3233425,24.5048509 74.9994525,24.0500156 74.7687743,23.4910778 C74.5439044,22.9479462 74.4296717,22.2748226 74.4296717,21.4905111 L74.4296717,4.75235448 L74.8160716,4.68340701 C75.03375,4.6444367 75.2782579,4.61500458 75.5426805,4.59538317 C75.8115286,4.57603427 76.044143,4.5667686 76.2554598,4.5667686 Z M5.53212961,10.6713722 L5.53212961,25.5021638 L5.14545308,25.5711113 C4.92666829,25.6100816 4.68216039,25.6397862 4.41884419,25.6591351 C4.15608117,25.677939 3.91655193,25.6874772 3.70634152,25.6874772 C3.51162029,25.6874772 3.28785684,25.6782115 3.0220513,25.6591351 C2.75762873,25.6395137 2.51312082,25.6100816 2.29488922,25.5711113 L1.90848929,25.5021638 L1.90848929,13.7238647 L0.214359304,13.7238647 L0.124743285,13.373677 C0.0818714246,13.2060774 0.0497866771,13.012861 0.0295954136,12.7994781 C0.00995733542,12.5980861 0,12.3950589 0,12.1977547 C0,12.000178 0.00995733542,11.7971508 0.0298720063,11.5943962 C0.0497866771,11.3831935 0.0818714246,11.1899771 0.124743285,11.0218324 L0.214082712,10.6713722 L5.53212961,10.6713722 Z M23.2334784,10.5623916 C23.4447952,10.5623916 23.66358,10.5719298 23.8837477,10.5912786 C24.1064048,10.6114451 24.3124663,10.6422398 24.4969536,10.6823002 L24.7962269,10.7477049 L24.8562475,11.0439338 C24.9126724,11.3202687 24.9668845,11.6699114 25.0224797,12.1116658 C25.2874554,11.8402362 25.5814734,11.5887006 25.9031507,11.3589665 C26.6186959,10.8482647 27.5350473,10.5896435 28.6270351,10.5896435 C28.7833099,10.5896435 28.9445635,10.5945489 29.1110722,10.6040871 C29.2869852,10.6144428 29.4338559,10.6297039 29.5610885,10.6501429 L29.8750211,10.7011041 L29.9436161,11.0074161 C29.9842752,11.1875516 30.014977,11.379678 30.0354449,11.5786173 C30.0556361,11.7794643 30.0655935,11.9873968 30.0655935,12.197782 C30.0655935,12.4321489 30.0506575,12.6793242 30.0207855,12.9322224 C29.992573,13.1761275 29.9588287,13.4107669 29.9209355,13.6361406 L29.8376811,14.1310363 L29.3434101,14.0100376 C29.2324964,13.9830582 29.1171573,13.9691597 29.0004352,13.9691597 L28.6270351,13.9691597 C28.1781252,13.9691597 27.7449811,14.0312941 27.3403261,14.1533829 C26.958075,14.2683862 26.6222916,14.4684156 26.3136142,14.764372 C26.0079793,15.0578756 25.7587693,15.4742857 25.5723459,16.0016112 C25.378731,16.5491031 25.2805406,17.2772756 25.2805406,18.1656897 L25.2805406,25.502191 L24.8938641,25.5711385 C24.6748027,25.6101088 24.4302948,25.6398135 24.1672552,25.6591624 C23.9044922,25.6779662 23.6649629,25.6875044 23.4547525,25.6875044 C23.2414996,25.6875044 23.0086086,25.6782387 22.742803,25.6591624 C22.4808698,25.6398135 22.2291705,25.6106539 21.9946199,25.5722286 L21.6013052,25.507914 L21.6013052,10.7477049 L21.9879817,10.6787575 C22.2017878,10.6406047 22.4097855,10.6114451 22.6053365,10.5918237 C22.8089087,10.5722023 23.0196723,10.5623916 23.2334784,10.5623916 Z M53.4925208,10.3443759 C55.2535862,10.3443759 56.5851032,10.8635258 57.4497318,11.8873821 C58.2930628,12.8864391 58.7203985,14.3569551 58.7203985,16.2580522 L58.7203985,25.502191 L58.3337219,25.5711385 C58.114384,25.6101088 57.8648974,25.6398135 57.592177,25.6591624 C57.3164142,25.6782387 57.0793743,25.6875044 56.8669511,25.6875044 C56.6536982,25.6875044 56.4208072,25.6782387 56.1550016,25.6591624 C55.8905791,25.6395409 55.6460712,25.6101088 55.4278396,25.5711385 L55.041163,25.502191 L55.041163,16.9941277 C55.041163,15.8026718 54.8624842,14.9300639 54.5098285,14.4005583 C54.1939597,13.9269191 53.6894547,13.69664 52.9669947,13.69664 C52.5136594,13.69664 52.0791323,13.7773058 51.6755837,13.9361848 C51.2833753,14.0907034 50.9326558,14.334881 50.633106,14.6613596 C50.3266413,14.9946511 50.0752186,15.4402207 49.885476,15.9860775 C49.691308,16.5433802 49.592841,17.2309473 49.592841,18.0294299 L49.592841,25.502191 L49.2061645,25.5711385 C48.9871031,25.6101088 48.7428718,25.6398135 48.4795556,25.6591624 C48.2167926,25.6779662 47.9772633,25.6875044 47.7670529,25.6875044 C47.5543532,25.6875044 47.3173133,25.6782387 47.0423802,25.6591624 C46.7685534,25.6398135 46.5190669,25.6101088 46.3002821,25.5711385 L45.9136056,25.502191 L45.9136056,10.7477049 L46.3002821,10.6787575 C46.5146414,10.6406047 46.7276177,10.6111726 46.9336792,10.5915512 C47.1461024,10.5722023 47.3607383,10.5623916 47.5734381,10.5623916 C47.7875208,10.5623916 47.9946887,10.5722023 48.1888567,10.5918237 C48.3752801,10.6114451 48.5774694,10.6406047 48.7912755,10.6787575 L49.1060379,10.7348965 L49.1685479,11.0439338 C49.2249728,11.3205412 49.2791849,11.678087 49.3347801,12.1356475 C49.6398617,11.8094415 49.9916876,11.5132126 50.3805769,11.254864 C50.7832958,10.9867047 51.2510139,10.7659637 51.7699017,10.5989092 C52.2948746,10.429947 52.8743362,10.3443759 53.4925208,10.3443759 Z M21.5452952,5.05746748 L21.6205284,5.43054687 C21.6603577,5.62757858 21.6907829,5.83632862 21.7106976,6.0510741 C21.7303356,6.26718218 21.740293,6.48274522 21.740293,6.69258535 C21.740293,6.90106288 21.7306122,7.1288893 21.7109742,7.36979667 C21.6913361,7.61424679 21.6609109,7.83853046 21.6205284,8.03719728 L21.5450186,8.40973164 L16.4573734,8.40973164 L16.4573734,25.5220577 L16.0477396,25.574654 C15.6060212,25.6316106 15.1203245,25.6602252 14.603926,25.6602252 C14.0698256,25.6602252 13.566427,25.6316106 13.1072832,25.5749265 L12.6954367,25.5239654 L12.6954367,8.40973164 L7.60834468,8.40973164 L7.5322817,8.03801484 C7.49162258,7.83962054 7.46119739,7.61969718 7.44155931,7.38451273 C7.42219783,7.15777638 7.41251708,6.93403776 7.41251708,6.72010983 C7.41251708,6.50563687 7.42219783,6.28571352 7.4418359,6.0663352 C7.46119739,5.84232406 7.49162258,5.62785109 7.5322817,5.42945679 L7.60834468,5.05746748 L21.5452952,5.05746748 Z M37.45023,18.8472341 C36.4116246,18.8472341 35.6236121,19.0295497 35.10832,19.3890031 C34.6370062,19.7176618 34.4079874,20.2177354 34.4079874,20.9183834 C34.4079874,21.3704935 34.4848802,21.7165934 34.636453,21.9468725 C34.7974299,22.1921402 34.9904916,22.3730932 35.2278081,22.5006324 C35.4753585,22.6338945 35.7549937,22.716468 36.0586924,22.7461726 C36.4080289,22.7810551 36.7460251,22.7984964 37.0630003,22.7984964 C37.4698681,22.7984964 37.8958208,22.7764223 38.3289649,22.7328192 C38.6097064,22.7044771 38.8710865,22.6671419 39.1097859,22.6205411 L39.1097859,18.9592396 C38.925022,18.9396182 38.7173009,18.9199968 38.487729,18.9001029 C38.0772656,18.8649478 37.727929,18.8472341 37.45023,18.8472341 Z M88.5634178,18.8472341 C87.5248124,18.8472341 86.7368,19.0295497 86.2215079,19.3890031 C85.750194,19.7176618 85.5211753,20.2177354 85.5211753,20.9183834 C85.5211753,21.3704935 85.598068,21.7165934 85.7496408,21.9468725 C85.9106177,22.1921402 86.1036794,22.3730932 86.3409959,22.5006324 C86.5885463,22.6338945 86.8681815,22.716468 87.1718802,22.7461726 C87.5212167,22.7810551 87.8592129,22.7984964 88.1761881,22.7984964 C88.5830559,22.7984964 89.0090086,22.7764223 89.4421527,22.7328192 C89.7228942,22.7044771 89.9842743,22.6671419 90.2229737,22.6205411 L90.2229737,18.9592396 C90.0382098,18.9396182 89.8304888,18.9199968 89.6009169,18.9001029 C89.1904534,18.8649478 88.8411169,18.8472341 88.5634178,18.8472341 Z M113.152007,13.4240114 C112.160145,13.4240114 111.429664,13.7022539 110.919627,14.2748177 C110.474037,14.7746187 110.170614,15.4583705 110.014893,16.3124471 L115.97906,16.3124471 C115.950848,16.0148556 115.894976,15.7257123 115.812275,15.4488323 C115.691127,15.042778 115.512448,14.6855048 115.281217,14.3862782 C115.058007,14.0984975 114.767308,13.8630405 114.417418,13.6867203 C114.071401,13.5125802 113.645448,13.4240114 113.152007,13.4240114 Z" id="path-1"></path>
        <path d="M15.9836901,0 C24.8112384,0 31.9673802,7.15614182 31.9673802,15.9836901 C31.9673802,24.8112384 24.8112384,31.9673802 15.9836901,31.9673802 C7.15614182,31.9673802 0,24.8112384 0,15.9836901 C0,7.15614182 7.15614182,0 15.9836901,0 Z M10.2675259,24.1657574 L10.1039192,24.2388263 C11.362487,27.4118958 13.3169829,29.5367293 15.494235,29.8157883 L15.4938828,23.0050503 C13.643111,23.0664148 11.8800647,23.4742444 10.2675259,24.1657574 Z M16.4724958,23.0050171 L16.4727482,29.8158392 C18.6501598,29.5369875 20.6048167,27.4120886 21.863461,24.2388263 C20.2070938,23.5023163 18.3867085,23.0683547 16.4724958,23.0050171 Z M9.22011623,24.6658466 L8.90368532,24.8376599 C8.08981636,25.2932434 7.32432312,25.8249431 6.61684444,26.42312 C8.31057381,27.9448685 10.3759653,29.059077 12.6601001,29.6140878 C11.2696613,28.5451669 10.0857494,26.8216018 9.22011623,24.6658466 Z M22.7464979,24.6652566 L22.6511262,24.9003651 C21.7948088,26.9467673 20.646791,28.5844175 19.3067734,29.6149811 C21.5908526,29.0593803 23.6565759,27.9450755 25.3502825,26.4246344 C24.5518394,25.747818 23.6792039,25.1572407 22.7464979,24.6652566 Z M7.67002153,16.4727784 L1.96555775,16.4728889 C2.08891852,20.0719996 3.56823928,23.3268658 5.90862732,25.742595 C6.81279382,24.9661274 7.80843022,24.2931882 8.87653939,23.7408592 C8.15073868,21.6106953 7.7175621,19.1267977 7.67002153,16.4727784 Z M30.0018225,16.4728889 L24.2973587,16.4727784 C24.2498255,19.1263859 23.816776,21.6099245 23.090144,23.7405102 C24.1581364,24.2926685 25.153948,24.9656447 26.0592454,25.7412416 C28.3991409,23.3268658 29.8784617,20.0719996 30.0018225,16.4728889 Z M15.494,16.472 L8.64879319,16.4730129 C8.69561959,18.9857472 9.10154515,21.3225238 9.76787568,23.3169922 C11.5295269,22.5431344 13.4624605,22.0890224 15.4939095,22.0259427 L15.494,16.472 Z M23.318587,16.4730129 L16.472,16.472 L16.4724688,22.0259116 C18.5043635,22.0888756 20.4377146,22.5430429 22.1997266,23.3156181 C22.8658351,21.3225238 23.2717606,18.9857472 23.318587,16.4730129 Z M5.90765053,6.22572372 L5.86178024,6.27337236 C3.54851033,8.68407175 2.08809339,11.9194542 1.96555775,15.4944913 L7.67002153,15.4946018 C7.71756913,12.8401901 8.15086678,10.3559504 8.87789699,8.22493301 C7.80843022,7.67419206 6.81279382,7.00125285 5.90765053,6.22572372 Z M9.76785986,8.65185253 L9.75816423,8.67953622 C9.09760202,10.6676088 8.69539167,12.9938636 8.64879319,15.4943673 L15.494,15.494 L15.4939095,9.94143753 C13.4624605,9.87835782 11.5295269,9.4242458 9.76785986,8.65185253 Z M26.0589787,6.22501832 L25.915636,6.34767744 C25.0489846,7.07220117 24.101942,7.7037651 23.0898381,8.22703946 C23.8166483,10.3567238 24.2498185,12.8406033 24.2973587,15.4946018 L30.0018225,15.4944913 C29.8784657,11.8954964 28.3992361,8.64072373 26.0589787,6.22501832 Z M22.1994705,8.65028623 L21.9114669,8.77467213 C20.2276624,9.47246171 18.3941366,9.88192036 16.4724688,9.94146861 L16.472,15.494 L23.318587,15.4943673 C23.2717598,12.9815903 22.8658213,10.6447769 22.1994705,8.65028623 Z M10.1702215,7.56393605 L10.1037178,7.73017208 C11.7603863,8.46502841 13.5802411,8.89888094 15.4938828,8.96232995 L15.494235,2.15159188 C13.3548531,2.42579712 11.4305459,4.48212581 10.1702215,7.56393605 Z M16.4727482,2.15154102 L16.4724958,8.96236312 C18.3867085,8.89902556 20.2070938,8.46506393 21.8641934,7.72993653 C20.6045667,4.55501986 18.6500205,2.43037485 16.4727482,2.15154102 Z M12.6603926,2.35256387 L12.6421532,2.35766589 C10.3651463,2.91414387 8.30613736,4.02649428 6.61709768,5.5427458 C7.41526775,6.21933134 8.28757955,6.80973567 9.21992553,7.30161891 C10.0858076,5.14569365 11.2696955,3.422187 12.6603926,2.35256387 Z M19.3063473,2.35306581 L19.3457099,2.38255681 C20.7196637,3.45426134 21.8896178,5.16572884 22.7472001,7.30137448 C23.6792039,6.81013957 24.5518394,6.21956225 25.3505358,5.54426021 C23.6565759,4.02230472 21.5908526,2.90799988 19.3063473,2.35306581 Z" id="path-3"></path>
    </defs>
    <g id="Website" stroke="none" stroke-width="1" fill="none" fill-rule="evenodd">
        <g id="Navigation-Bar---Expanded" transform="translate(-165.000000, -70.000000)">
            <g id="Logos/iTranslate-(Word--and-Picturemark)" transform="translate(165.000000, 70.000000)">
                <g id="Logos/iTranslate-(Wordmark)" transform="translate(40.285423, 0.000000)">
                    <mask id="mask-2" fill="white">
                        <use xlink:href="#path-1"></use>
                    </mask>
                    <use id="iTranslate" fill="#1A98FF" fill-rule="evenodd" xlink:href="#path-1"></use>
                </g>
                <g id="Logos/iTranslate-Glyph">
                    <mask id="mask-4" fill="white">
                        <use xlink:href="#path-3"></use>
                    </mask>
                    <use id="iTranslate-Glyph" fill="#1A98FF" fill-rule="evenodd" xlink:href="#path-3"></use>
                </g>
            </g>
        </g>
    </g>
</svg>