<?xml version="1.0" encoding="UTF-8"?>
<svg width="18px" height="15px" viewBox="0 0 18 15" version="1.1" xmlns="http://www.w3.org/2000/svg" xmlns:xlink="http://www.w3.org/1999/xlink">
    <!-- Generator: Sketch 60 (88103) - https://sketch.com -->
    <title>Icons/Third Party/iconYoutube Copy 2</title>
    <desc>Created with Sketch.</desc>
    <defs>
        <path d="M18.3333333,5.01062323 C17.7198633,5.29508971 17.0610486,5.48719311 16.3691761,5.57394948 C17.0750908,5.13101983 17.617472,4.43018178 17.8725726,3.5950779 C17.2120026,4.0052526 16.4800513,4.30270302 15.7009999,4.46293673 C15.0775833,3.76829556 14.1894122,3.33333333 13.2052857,3.33333333 C11.3171906,3.33333333 9.78629478,4.93449008 9.78629478,6.91011568 C9.78629478,7.19015581 9.81613452,7.46340888 9.87493637,7.72485836 C7.03343221,7.57583805 4.51314411,6.15173513 2.82690609,3.98843248 C2.53289685,4.51634797 2.36468262,5.13101983 2.36468262,5.78641407 C2.36468262,7.0269712 2.96762095,8.12116383 3.88563187,8.76298395 C3.32482023,8.74409821 2.79794398,8.58356941 2.33630561,8.31562795 C2.33572051,8.33067753 2.33572051,8.34543201 2.33572051,8.36048159 C2.33572051,10.0932483 3.51497546,11.5388928 5.07922159,11.8676228 C4.79223348,11.9493626 4.49003294,11.9927408 4.17759328,11.9927408 C3.9581834,11.9927408 3.74374682,11.970314 3.53486862,11.9287063 C3.96988526,13.3495633 5.23251596,14.3832625 6.7294764,14.4121813 C5.55870531,15.3712229 4.08427094,15.9434018 2.48257886,15.9434018 C2.20641496,15.9434018 1.93434671,15.9262866 1.66666667,15.8929415 C3.17971717,16.9083451 4.97712286,17.5 6.90763722,17.5 C13.197387,17.5 16.6368562,12.0505784 16.6368562,7.32442162 C16.6368562,7.16920444 16.6333456,7.01516761 16.6269096,6.86172096 C17.2950858,6.35741265 17.8746204,5.72769122 18.3333333,5.01062323" id="path-1"></path>
    </defs>
    <g id="Website" stroke="none" stroke-width="1" fill="none" fill-rule="evenodd">
        <g id="Footer---Wide" transform="translate(-1019.000000, -496.000000)">
            <g id="Social-Media-Bar" transform="translate(925.000000, 493.000000)">
                <g id="Icons/Third-Party/iconTwitter" transform="translate(93.000000, 0.000000)">
                    <mask id="mask-2" fill="white">
                        <use xlink:href="#path-1"></use>
                    </mask>
                    <use id="Icon" fill="#919699" fill-rule="evenodd" xlink:href="#path-1"></use>
                </g>
            </g>
        </g>
    </g>
</svg>