<?xml version="1.0" encoding="UTF-8"?>
<svg width="18px" height="18px" viewBox="0 0 18 18" version="1.1" xmlns="http://www.w3.org/2000/svg" xmlns:xlink="http://www.w3.org/1999/xlink">
    <!-- Generator: Sketch 60 (88103) - https://sketch.com -->
    <title>Icons/Third Party/iconYoutube Copy 3</title>
    <desc>Created with Sketch.</desc>
    <g id="Website" stroke="none" stroke-width="1" fill="none" fill-rule="evenodd">
        <g id="Footer---Wide" transform="translate(-973.000000, -494.000000)" fill="#919699">
            <g id="Social-Media-Bar" transform="translate(925.000000, 493.000000)">
                <g id="Icons-/-Third-Party-/-iconInstagram" transform="translate(47.000000, 0.000000)">
                    <path d="M11.1801201,1.66810898 C12.4076905,1.67200758 12.7321257,1.68470862 13.4357896,1.71681476 C14.3228088,1.75727065 14.9285555,1.89815504 15.45865,2.10417241 C16.0066403,2.31710335 16.4713703,2.60204774 16.9346447,3.06532219 C17.3979523,3.52862973 17.6828636,3.99335968 17.8958276,4.54131694 C18.101845,5.07141142 18.2427294,5.67715807 18.2831852,6.56417732 C18.318671,7.34191111 18.3304513,7.65640196 18.3328419,9.23902698 L18.3328419,10.7609509 C18.3304513,12.343598 18.318671,12.6580889 18.2831852,13.4358227 C18.2427294,14.3228088 18.101845,14.9285886 17.8958276,15.45865 C17.6828636,16.0066403 17.3979523,16.4713703 16.9346447,16.9346447 C16.4713703,17.3979523 16.0066403,17.6828636 15.45865,17.8958607 C14.9285555,18.101845 14.3228088,18.2427294 13.4357896,18.2832183 C12.6580558,18.3186751 12.3435903,18.3304518 10.7609494,18.332842 L9.23902562,18.332842 C7.65639472,18.3304518 7.34188216,18.3186751 6.56417732,18.2832183 C5.67715807,18.2427294 5.07141142,18.101845 4.54131694,17.8958607 C3.99335968,17.6828636 3.52859665,17.3979523 3.06532219,16.9346447 C2.60201466,16.4713703 2.31710335,16.0066072 2.10413933,15.45865 C1.89812196,14.9285886 1.75727065,14.3228088 1.71678168,13.4358227 C1.68467554,12.7321588 1.67199523,12.4077028 1.66810527,11.1801238 L1.66810527,8.81984687 C1.67199523,7.59227646 1.68467554,7.26784122 1.71678168,6.56417732 C1.75727065,5.67715807 1.89812196,5.07141142 2.10413933,4.54131694 C2.31710335,3.99335968 2.60201466,3.52862973 3.06532219,3.06532219 C3.52859665,2.60204774 3.99335968,2.31710335 4.54131694,2.10417241 C5.07141142,1.89815504 5.67715807,1.75727065 6.56417732,1.71681476 C7.26781503,1.68470862 7.59228628,1.67200758 8.81985642,1.66810898 Z M10.5168854,3.16835531 L9.48308152,3.16835531 C7.72668077,3.16979648 7.43810547,3.17997477 6.63258515,3.21672578 C5.82012646,3.25380758 5.37884968,3.3895647 5.08520545,3.503688 C4.69626,3.65486003 4.41862611,3.83543949 4.1270328,4.12706588 C3.83543949,4.41865919 3.65482695,4.69626 3.50365492,5.08523853 C3.3895647,5.37888276 3.25380758,5.82012646 3.21672578,6.63261823 C3.17997477,7.43810823 3.16979648,7.72670879 3.16835531,9.48308849 L3.16835531,10.516886 C3.16979648,12.2732912 3.17997477,12.5618918 3.21672578,13.3673818 C3.25380758,14.1798735 3.3895647,14.6211172 3.50365492,14.9147615 C3.65482695,15.3037069 3.83543949,15.5813408 4.1270328,15.8729341 C4.41862611,16.1645605 4.69626,16.34514 5.08520545,16.496312 C5.37884968,16.6104022 5.82012646,16.7461924 6.63261823,16.7832411 C7.43798694,16.8199922 7.7265218,16.8301982 9.48304427,16.831644 L10.5169227,16.831644 C12.2734451,16.8301982 12.56198,16.8199922 13.3673487,16.7832411 C14.1798405,16.7461924 14.6210842,16.6104022 14.9147284,16.496312 C15.3037069,16.34514 15.5813408,16.1645605 15.8729341,15.8729341 C16.1645274,15.5813408 16.3451069,15.3037069 16.496312,14.9147615 C16.6104022,14.6211172 16.7461593,14.1798735 16.7832411,13.3673487 C16.8199618,12.561889 16.8301654,12.273291 16.831611,10.516886 L16.831611,9.48308849 C16.8301654,7.72670879 16.8199618,7.43810823 16.7832411,6.63261823 C16.7461593,5.82012646 16.6104022,5.37888276 16.496312,5.08523853 C16.3451069,4.69626 16.1645274,4.41865919 15.8729341,4.1270328 C15.5813408,3.83543949 15.3037069,3.65486003 14.9147284,3.503688 C14.6210842,3.3895647 14.1798405,3.25380758 13.3673487,3.21672578 C12.5618587,3.17997477 12.2732859,3.16979648 10.5168854,3.16835531 Z M9.99998346,5.7207234 C12.3633613,5.7207234 14.2792435,7.6366056 14.2792435,9.99998346 C14.2792435,12.3633944 12.3633613,14.2792766 9.99998346,14.2792766 C7.6366056,14.2792766 5.72069032,12.3633944 5.72069032,9.99998346 C5.72069032,7.6366056 7.6366056,5.7207234 9.99998346,5.7207234 Z M9.99998346,7.22222222 C8.46586853,7.22222222 7.22218914,8.46586853 7.22218914,9.99998346 C7.22218914,11.5340984 8.46586853,12.7777778 9.99998346,12.7777778 C11.5340984,12.7777778 12.7777778,11.5340984 12.7777778,9.99998346 C12.7777778,8.46586853 11.5340984,7.22222222 9.99998346,7.22222222 Z M14.4483478,4.55166412 C15.0006384,4.55166412 15.4483299,4.99935826 15.4483299,5.5516489 C15.4483299,6.10393954 15.0006384,6.55163368 14.4483478,6.55163368 C13.8960572,6.55163368 13.4483299,6.10393954 13.4483299,5.5516489 C13.4483299,4.99935826 13.8960572,4.55166412 14.4483478,4.55166412 Z" id="Combined-Shape"></path>
                </g>
            </g>
        </g>
    </g>
</svg>