<?xml version="1.0" encoding="UTF-8"?>
<svg width="18px" height="18px" viewBox="0 0 18 18" version="1.1" xmlns="http://www.w3.org/2000/svg" xmlns:xlink="http://www.w3.org/1999/xlink">
    <!-- Generator: Sketch 60 (88103) - https://sketch.com -->
    <title>Icons/Third Party/iconYoutube Copy</title>
    <desc>Created with Sketch.</desc>
    <g id="Website" stroke="none" stroke-width="1" fill="none" fill-rule="evenodd">
        <g id="Footer---Wide" transform="translate(-926.000000, -494.000000)" fill="#919699">
            <g id="Social-Media-Bar" transform="translate(925.000000, 493.000000)">
                <g id="Icons/Third-Party/iconFacebook">
                    <path d="M18.3333333,10.0509525 C18.3333333,5.42043591 14.6023763,1.66666667 10,1.66666667 C5.3976237,1.66666667 1.66666667,5.42043591 1.66666667,10.0509525 C1.66666667,14.235792 4.71404622,17.7043973 8.69791667,18.3333333 L8.69791667,12.4745352 L6.58203125,12.4745352 L6.58203125,10.0509525 L8.69791667,10.0509525 L8.69791667,8.20378957 C8.69791667,6.10247792 9.94202474,4.94177834 11.8455404,4.94177834 C12.7572754,4.94177834 13.7109375,5.10553392 13.7109375,5.10553392 L13.7109375,7.16885428 L12.6601237,7.16885428 C11.6249186,7.16885428 11.3020833,7.81514844 11.3020833,8.4781948 L11.3020833,10.0509525 L13.6132812,10.0509525 L13.2438151,12.4745352 L11.3020833,12.4745352 L11.3020833,18.3333333 C15.2859538,17.7043973 18.3333333,14.235792 18.3333333,10.0509525" id="Fill-1"></path>
                </g>
            </g>
        </g>
    </g>
</svg>