<?xml version="1.0" encoding="UTF-8"?>
<svg width="18px" height="13px" viewBox="0 0 18 13" version="1.1" xmlns="http://www.w3.org/2000/svg" xmlns:xlink="http://www.w3.org/1999/xlink">
    <!-- Generator: Sketch 60 (88103) - https://sketch.com -->
    <title>Icons/Third Party/iconYoutube</title>
    <desc>Created with Sketch.</desc>
    <defs>
        <path d="M10.3920148,4.16839382 C11.628558,4.17702956 15.428448,4.22884402 16.5115721,4.53973079 C17.2286702,4.74507775 17.793349,5.35024126 17.985005,6.11841822 C18.3084527,7.41167988 18.3315561,10.0092493 18.3332064,10.3737324 L18.3332064,10.4594561 C18.3315561,10.8239565 18.3084527,13.421643 17.985005,14.7147681 C17.793349,15.4829451 17.2286702,16.0882556 16.5115721,16.2934556 C15.2118231,16.6666667 9.9999314,16.6666667 9.9999314,16.6666667 C9.9999314,16.6666667 4.78817687,16.6666667 3.48842793,16.2934556 C2.77132979,16.0882556 2.20665103,15.4829451 2.01499499,14.7147681 C1.71642786,13.5211141 1.67377541,11.2158813 1.6676822,10.5816036 L1.6676822,10.2515904 C1.67377541,9.61734104 1.71642786,7.31219821 2.01499499,6.11841822 C2.20665103,5.35024126 2.77132979,4.74507775 3.48842793,4.53973079 C4.57155204,4.22884402 8.37134671,4.17702956 9.60785816,4.16839382 Z M7.91666667,7.29166667 L7.91666667,13.5416667 L13.4722222,10.4166667 L7.91666667,7.29166667 Z" id="path-1"></path>
    </defs>
    <g id="Website" stroke="none" stroke-width="1" fill="none" fill-rule="evenodd">
        <g id="Footer---Wide" transform="translate(-1066.000000, -497.000000)">
            <g id="Social-Media-Bar" transform="translate(925.000000, 493.000000)">
                <g id="Icons/Third-Party/iconYoutube" transform="translate(140.000000, 0.000000)">
                    <mask id="mask-2" fill="white">
                        <use xlink:href="#path-1"></use>
                    </mask>
                    <use id="Icon" fill="#919699" fill-rule="evenodd" xlink:href="#path-1"></use>
                </g>
            </g>
        </g>
    </g>
</svg>